HIERARCHY
ROOT Pelvis
{
	OFFSET 0.000000 0.000000 0.000000
	CHANNELS 6 Xposition Yposition Zposition Zrotation Yrotation Xrotation 
	JOINT Left_hip
	{
		OFFSET 0.076090 -0.089427 -0.010735
		CHANNELS 3 Zrotation Yrotation Xrotation
		JOINT Left_knee
		{
			OFFSET 0.030200 -0.359518 -0.003501
			CHANNELS 3 Zrotation Yrotation Xrotation
			JOINT Left_ankle
			{
				OFFSET -0.011005 -0.371022 -0.045888
				CHANNELS 3 Zrotation Yrotation Xrotation
				JOINT Left_foot
				{
					OFFSET 0.023930 -0.052103 0.111084
					CHANNELS 3 Zrotation Yrotation Xrotation
					End Site
					{
						OFFSET 0.000000 0.000000 0.000000
					}
				}
			}
		}
	}
	JOINT Right_hip
	{
		OFFSET -0.073836 -0.088112 -0.007709
		CHANNELS 3 Zrotation Yrotation Xrotation
		JOINT Right_knee
		{
			OFFSET -0.035715 -0.367809 -0.006536
			CHANNELS 3 Zrotation Yrotation Xrotation
			JOINT Right_ankle
			{
				OFFSET 0.013718 -0.371958 -0.043815
				CHANNELS 3 Zrotation Yrotation Xrotation
				JOINT Right_foot
				{
					OFFSET -0.021936 -0.046387 0.114542
					CHANNELS 3 Zrotation Yrotation Xrotation
					End Site
					{
						OFFSET 0.000000 0.000000 0.000000
					}
				}
			}
		}
	}
	JOINT Spine1
	{
		OFFSET -0.001865 0.102064 -0.019455
		CHANNELS 3 Zrotation Yrotation Xrotation
		JOINT Spine2
		{
			OFFSET 0.003082 0.129260 -0.001938
			CHANNELS 3 Zrotation Yrotation Xrotation
			JOINT Spine3
			{
				OFFSET 0.001104 0.048093 0.026561
				CHANNELS 3 Zrotation Yrotation Xrotation
				JOINT Neck
				{
					OFFSET -0.002010 0.204222 -0.047183
					CHANNELS 3 Zrotation Yrotation Xrotation
					JOINT Head
					{
						OFFSET 0.005050 0.063649 0.048489
						CHANNELS 3 Zrotation Yrotation Xrotation
						End Site
						{
							OFFSET 0.000000 0.000000 0.000000
						}
					}
				}
				JOINT Left_collar
				{
					OFFSET 0.072979 0.114065 -0.031633
					CHANNELS 3 Zrotation Yrotation Xrotation
					JOINT Left_shoulder
					{
						OFFSET 0.083419 0.032092 -0.006530
						CHANNELS 3 Zrotation Yrotation Xrotation
						JOINT Left_elbow
						{
							OFFSET 0.239393 -0.012014 -0.025060
							CHANNELS 3 Zrotation Yrotation Xrotation
							JOINT Left_wrist
							{
								OFFSET 0.227297 0.008116 0.000384
								CHANNELS 3 Zrotation Yrotation Xrotation
								JOINT Left_palm
								{
									OFFSET 0.074607 -0.009248 -0.012277
									CHANNELS 3 Zrotation Yrotation Xrotation
									End Site
									{
										OFFSET 0.000000 0.000000 0.000000
									}
								}
							}
						}
					}
				}
				JOINT Right_collar
				{
					OFFSET -0.074980 0.111880 -0.037894
					CHANNELS 3 Zrotation Yrotation Xrotation
					JOINT Right_shoulder
					{
						OFFSET -0.087565 0.034353 -0.009323
						CHANNELS 3 Zrotation Yrotation Xrotation
						JOINT Right_elbow
						{
							OFFSET -0.236838 -0.013719 -0.019794
							CHANNELS 3 Zrotation Yrotation Xrotation
							JOINT Right_wrist
							{
								OFFSET -0.235053 0.006433 -0.003853
								CHANNELS 3 Zrotation Yrotation Xrotation
								JOINT Right_palm
								{
									OFFSET -0.075499 -0.006894 -0.009792
									CHANNELS 3 Zrotation Yrotation Xrotation
									End Site
									{
										OFFSET 0.000000 0.000000 0.000000
									}
								}
							}
						}
					}
				}
			}
		}
	}
}
MOTION
Frames: 12
Frame Time: 0.100000
0.000000 0.000000 0.000000 176.011574 25.909831 -12.064762 2.339137 0.015879 7.268514 -3.018026 -7.825525 -8.758870 0.087246 5.042343 -5.248756 0.430719 8.846516 -3.445983 0.307871 -3.304248 8.885382 2.658876 0.583572 -6.681594 4.655284 -13.058495 -11.459305 -6.505213 8.978581 6.262250 2.067462 0.763539 1.361029 0.872920 -3.231620 -0.291667 1.003398 -2.494407 -0.799369 -1.670433 8.352428 -10.882499 -3.920647 1.269061 5.277483 -30.694907 -9.122890 1.821916 -53.286104 -20.828818 9.762488 9.163053 -23.270080 2.384352 -4.581032 -1.651619 -1.362465 -7.863930 -4.783230 -5.439739 30.969238 6.809655 4.158300 49.771590 5.286478 13.657777 -9.292387 11.559216 -6.892664 6.488406 -1.656219 -0.943972 10.443873 7.213863 -4.600283 
0.001508 0.000310 -0.001306 175.988884 24.363094 -12.358975 2.616825 0.426910 7.616026 -3.068186 -7.859047 -8.731340 0.036092 5.818793 -5.455649 1.033916 8.880795 -3.306165 0.421883 -3.050093 8.866992 2.811122 1.567646 -6.534493 4.672026 -13.066619 -11.251629 -6.728259 8.808320 5.825410 1.940851 1.015395 1.300902 0.974747 -2.905277 0.198548 0.972010 -2.300388 -0.317044 0.136487 6.475870 -10.621289 -2.879585 -0.802842 4.976483 -31.142815 -7.266554 2.160405 -52.527845 -17.681047 8.961008 7.414644 -18.117045 3.338469 -4.765547 -0.967755 -0.095370 -8.358894 -4.976625 -7.233133 30.901142 6.316758 4.045950 49.875036 4.716494 14.206813 -8.645014 12.399500 -5.188707 5.908962 -1.619657 -0.321354 10.925783 7.395773 -5.170456 
0.003300 0.000505 -0.002430 175.967180 23.172444 -12.591449 2.860801 1.089957 7.902743 -3.045024 -8.017663 -8.810781 -0.253993 6.379861 -5.447568 1.775696 8.616032 -3.164793 0.514407 -2.907867 8.991349 2.953396 2.471325 -6.708999 4.456044 -13.086102 -10.891445 -6.716384 8.251358 5.614481 1.918793 1.017952 1.258797 1.210503 -2.897578 0.616256 1.038404 -2.367212 0.288933 1.595084 4.969882 -10.299020 -2.452138 -2.440589 4.527357 -31.165696 -4.866427 2.802496 -51.992950 -12.984064 8.550155 4.576541 -10.881892 6.431295 -6.090944 -0.177896 2.029167 -9.044393 -5.163946 -10.035130 30.688742 5.408365 3.618365 49.660655 4.630078 14.184882 -7.884328 12.430847 -3.828651 5.473830 -1.476856 -0.118611 11.664355 7.528929 -5.952841 
0.005576 0.000716 -0.005502 175.963576 22.472181 -12.795159 2.974709 1.603598 7.816305 -3.010953 -8.124317 -8.588522 -0.767478 6.767280 -5.313023 2.626911 8.206081 -3.306455 0.562827 -2.717074 8.692027 3.100370 2.757500 -6.272237 4.217188 -12.776380 -10.641476 -6.646283 7.136129 5.393109 2.127948 0.883879 1.597930 1.460384 -2.812758 0.635636 1.207460 -2.459990 0.879332 2.242615 3.778022 -9.786193 -2.627371 -3.575005 4.181773 -30.810350 -2.017901 3.187785 -53.021536 -8.829893 8.043794 3.547940 -3.669177 7.845352 -7.646683 0.532563 2.739326 -9.135239 -5.040651 -12.114497 30.247914 4.198987 2.962508 49.997199 5.076247 13.481907 -7.935228 10.620306 -4.603663 5.173749 -1.560529 -1.260215 11.868915 7.337640 -6.302418 
0.008395 0.001016 -0.008974 175.916800 22.402131 -12.835944 2.998590 1.769237 7.640800 -2.771981 -8.120090 -8.783464 -1.840702 7.008201 -5.046582 3.775404 7.629417 -3.628712 0.578936 -2.576948 8.149507 3.266046 2.401307 -5.764157 4.586122 -12.161492 -10.605200 -6.958160 6.203950 5.260237 2.385499 0.830143 2.237744 1.866394 -2.329287 0.228832 1.570962 -2.374194 1.250505 2.087188 2.873583 -9.488825 -3.709497 -4.717363 4.708187 -30.652780 1.364458 2.817478 -54.908855 -6.670130 7.074174 4.353558 -0.115371 5.457463 -8.299530 0.534761 0.803405 -8.721291 -4.796767 -12.351255 30.552059 2.370398 1.985872 49.335110 6.007797 11.223570 -9.940481 6.177112 -10.622327 4.110564 -1.919968 -3.931799 11.648807 6.908858 -6.094456 
0.012981 0.001508 -0.014721 176.063292 22.605724 -13.014800 2.868822 1.750928 7.544359 -2.529141 -7.945927 -8.949788 -2.925458 7.124563 -4.808135 4.357560 7.101439 -3.542219 0.459167 -2.484703 7.664938 3.380550 1.532107 -5.167045 4.952514 -11.097291 -10.723293 -6.773048 5.369210 5.834722 2.911872 0.586947 3.682414 1.955759 -1.735416 -0.494621 1.674711 -2.129787 0.992501 1.366431 2.213818 -8.576966 -5.123951 -4.988579 6.028069 -30.866366 3.989130 2.046286 -56.872264 -7.274792 5.253620 7.045744 1.029088 -2.556896 -8.800712 0.045678 -5.242772 -7.168264 -4.146780 -10.093356 30.574322 1.244140 0.787376 46.915932 8.574671 6.923546 -10.068240 -1.471460 -22.009196 5.055022 -3.286358 -9.561586 10.441231 5.866396 -4.678046 
0.019134 0.002174 -0.020333 176.545796 22.913151 -13.064619 2.583382 1.728307 7.054163 -2.456662 -7.574326 -8.490935 -3.051257 6.869780 -4.361575 3.701986 7.054138 -3.661640 0.230406 -2.338649 7.155283 3.448525 0.900861 -4.589094 4.356985 -10.417692 -10.872785 -5.503545 4.816763 6.973893 3.658863 0.266792 4.727654 1.621271 -1.617805 -0.807566 1.139507 -1.959665 0.720485 0.412929 2.677955 -7.471345 -6.539238 -4.121272 7.489008 -31.036595 3.372221 1.641731 -57.230247 -9.232497 5.598327 8.743049 -0.813152 -4.785941 -9.020634 -0.376922 -7.095932 -6.420704 -3.778577 -8.632447 29.972867 1.775712 0.179501 43.734073 11.013319 3.857414 -9.268854 -6.647052 -27.979070 5.291025 -4.214604 -11.103602 9.815219 5.379612 -4.043694 
0.027968 0.002526 -0.024439 177.262814 23.003211 -13.005094 2.176841 1.627208 5.780272 -2.452420 -6.778909 -6.452151 -2.410149 6.627603 -4.361314 2.515651 7.261353 -3.970873 0.056033 -2.421306 6.788014 3.426449 0.836351 -4.322094 3.886502 -10.215352 -10.825500 -4.796059 5.115383 7.617422 4.222632 0.098077 5.454724 1.157430 -1.782844 -0.880270 0.615179 -1.780355 0.707991 -1.350517 4.384205 -6.818785 -7.790451 -2.016650 8.716075 -30.251724 0.752390 1.446603 -56.247779 -11.697917 6.592881 9.435385 -4.690201 -3.269258 -8.788266 -0.753589 -6.355783 -6.337544 -3.690592 -7.629851 28.902984 3.469162 0.471777 41.209905 12.240371 3.217115 -8.809869 -7.519238 -27.552366 4.981378 -4.340243 -9.605094 9.870119 5.428931 -4.057802 
0.037837 0.002061 -0.025154 178.254345 22.262972 -13.354298 1.067748 1.226601 3.505756 -1.595478 -5.563139 -0.657235 -1.273760 6.976326 -6.133413 1.276808 8.055202 -4.376906 -0.085366 -2.522320 7.178644 3.189801 1.202822 -3.943409 4.891774 -9.909528 -10.930130 -6.042240 6.333516 7.130278 4.615230 0.400195 6.925436 0.577087 -1.625776 -0.965320 0.312788 -1.390735 0.854821 -3.767883 7.150944 -7.426354 -9.371619 1.237536 9.407878 -29.838472 -1.201744 0.371184 -54.692638 -14.593597 5.668089 11.482475 -7.721739 -6.163320 -7.557495 -0.568067 -6.600435 -6.424011 -3.964673 -5.666237 28.725039 4.537006 0.446162 39.373876 13.045198 2.739602 -9.312022 -6.218462 -28.994346 4.335631 -4.107002 -8.721293 10.448896 5.762938 -3.810746 
0.044340 0.006184 -0.026290 176.894956 23.120272 -17.974108 0.129325 -3.049885 -3.252780 0.049273 -3.511438 20.067041 -0.057091 10.306192 -10.042769 0.858663 6.727915 -6.281987 0.944983 -3.766958 12.143050 3.618772 2.368978 -4.468914 6.447741 -10.060497 -11.029308 -9.966810 5.836108 4.824236 6.038521 2.943810 11.438742 0.809151 -1.659039 0.299876 1.507113 -0.655929 2.638276 -8.089646 4.666672 -12.203845 -9.170747 4.391226 10.214195 -27.781383 -7.048913 0.245801 -57.060273 -21.073177 5.337590 15.037827 -5.455887 -21.349939 -2.113131 -2.594000 -18.893155 -6.917324 -3.227635 -1.211816 26.690186 8.703929 1.308639 36.614760 12.319420 -2.582917 -9.260040 -9.194619 -47.838669 -1.660370 -2.679489 -21.881826 12.162309 4.359732 -3.902242 
0.047999 0.005673 -0.018010 176.590394 24.541867 -18.950116 0.013914 -3.754097 -12.318478 -0.175547 2.765934 30.781191 1.933066 11.350182 -8.792532 -0.995216 7.411486 -7.153059 1.169525 -4.998210 13.830021 3.565397 2.224201 -4.488238 5.168215 -9.739761 -11.256059 -8.791736 5.074398 4.417661 5.993805 4.916962 13.836034 0.702773 -1.286943 -0.075078 1.621638 0.069501 2.929128 -8.076947 4.107758 -12.958976 -8.048585 4.809366 9.429389 -28.171363 -7.011435 0.109551 -56.517372 -20.645177 5.536283 16.888997 -9.781615 -19.688196 -1.835777 -2.867284 -18.140458 -7.387880 -3.388455 -1.055504 26.963132 8.936772 2.326378 35.111091 11.637675 -3.724721 -9.144570 -9.999421 -47.498529 -2.831740 -3.130075 -20.604196 12.767389 4.648619 -4.483439 
0.043265 0.002001 0.001465 177.419462 25.068569 -18.393972 -1.263460 -1.883077 -15.892818 -1.484789 8.124032 21.093460 0.838733 10.848024 -6.813367 0.987417 7.597827 -5.960720 0.610313 -5.758114 14.895813 2.994508 2.076579 -3.861049 5.994217 -9.779651 -12.708861 -9.961375 6.241286 3.605661 5.835922 5.526600 14.673125 -0.276474 -1.015550 -0.149950 1.024716 0.737360 3.053417 -7.822696 5.375157 -13.659992 -8.043562 5.181046 8.977206 -28.560702 -5.249883 -0.097956 -55.177552 -16.604677 4.107008 16.392211 -8.339643 -19.160512 -0.656871 -2.211369 -14.929614 -8.144617 -3.665744 -4.277135 26.603582 8.929252 2.383711 35.345014 13.034284 -4.279642 -7.607670 -10.893671 -48.323062 -3.649218 -3.170637 -19.910829 13.104351 4.568519 -5.491867 
